<?xml version="1.0" encoding="UTF-8" standalone="no"?>
<svg
   xmlns:dc="http://purl.org/dc/elements/1.1/"
   xmlns:cc="http://creativecommons.org/ns#"
   xmlns:rdf="http://www.w3.org/1999/02/22-rdf-syntax-ns#"
   xmlns:svg="http://www.w3.org/2000/svg"
   xmlns="http://www.w3.org/2000/svg"
   xmlns:sodipodi="http://sodipodi.sourceforge.net/DTD/sodipodi-0.dtd"
   xmlns:inkscape="http://www.inkscape.org/namespaces/inkscape"
   viewBox="0 0 250 78"
   preserveAspectRatio="xMidYMid meet"
   class="css-1y5supu"
   id="geaebeef"
   version="1.1"
   sodipodi:docname="logo.svg"
   inkscape:version="0.92.2 5c3e80d, 2017-08-06">
  <metadata
     id="metadata62">
    <rdf:RDF>
      <cc:Work
         rdf:about="">
        <dc:format>image/svg+xml</dc:format>
        <dc:type
           rdf:resource="http://purl.org/dc/dcmitype/StillImage" />
        <dc:title></dc:title>
      </cc:Work>
    </rdf:RDF>
  </metadata>
  <sodipodi:namedview
     pagecolor="#ffffff"
     bordercolor="#666666"
     borderopacity="1"
     objecttolerance="10"
     gridtolerance="10"
     guidetolerance="10"
     inkscape:pageopacity="0"
     inkscape:pageshadow="2"
     inkscape:window-width="1678"
     inkscape:window-height="963"
     id="namedview60"
     showgrid="false"
     inkscape:zoom="2.592"
     inkscape:cx="127.14135"
     inkscape:cy="43.895881"
     inkscape:window-x="0"
     inkscape:window-y="0"
     inkscape:window-maximized="0"
     inkscape:current-layer="geaebeef" />
  <defs
     id="SvgjsDefs1192" />
  <g
     id="SvgjsG1198"
     featurekey="root"
     fill="#000000"
     style="fill:#000000" />
  <g
     id="SvgjsG1199"
     featurekey="symbol1"
     fill="#ffffff"
     transform="matrix(1.4583333730697632,0,0,1.4583333730697632,-2.9166666666666665,0.876383463541667)"
     style="fill:#000000">
    <g
       id="g50"
       style="fill:#000000">
      <g
         id="g32"
         style="fill:#000000">
        <g
           id="g6"
           style="fill:#000000">
          <path
             d="M43.4301758,40.0859375H8.5698242C7.4287109,40.0859375,6.5,39.1572266,6.5,38.0166016V12.9560547     c0-1.140625,0.9287109-2.0693359,2.0698242-2.0693359h34.8603516c1.1411133,0,2.0698242,0.9287109,2.0698242,2.0693359     v25.0605469C45.5,39.1572266,44.5712891,40.0859375,43.4301758,40.0859375z M8.5698242,12.8867188L8.5,38.0166016     l34.9301758,0.0693359L43.5,12.9560547c0-0.0371094-0.0317383-0.0693359-0.0698242-0.0693359H8.5698242z"
             id="path4"
             style="fill:#000000" />
        </g>
        <g
           id="g10"
           style="fill:#000000">
          <path
             d="M29.0722656,47.1152344c-0.5522461,0-1-0.4472656-1-1v-7.0244141c0-0.5527344,0.4477539-1,1-1s1,0.4472656,1,1v7.0244141     C30.0722656,46.6679688,29.6245117,47.1152344,29.0722656,47.1152344z"
             id="path8"
             style="fill:#000000" />
        </g>
        <g
           id="g14"
           style="fill:#000000">
          <path
             d="M22.9301758,47.1152344c-0.5522461,0-1-0.4472656-1-1v-7.0244141c0-0.5527344,0.4477539-1,1-1s1,0.4472656,1,1v7.0244141     C23.9301758,46.6679688,23.4824219,47.1152344,22.9301758,47.1152344z"
             id="path12"
             style="fill:#000000" />
        </g>
        <g
           id="g18"
           style="fill:#000000">
          <path
             d="M17.0009766,36.1152344c-2.2055664,0-4-1.7939453-4-4s1.7944336-4,4-4     c0.0551758,0,0.1098633,0.0048828,0.1645508,0.0136719l18.0004883,3     c0.4819336,0.0800781,0.8354492,0.4970703,0.8354492,0.9863281s-0.3535156,0.90625-0.8354492,0.9863281l-18.0004883,3     C17.1108398,36.1103516,17.0561523,36.1152344,17.0009766,36.1152344z M16.9262695,30.1162109     c-1.0683594,0.0400391-1.925293,0.9208984-1.925293,1.9990234s0.8569336,1.9589844,1.925293,1.9990234l11.9921875-1.9990234     L16.9262695,30.1162109z"
             id="path16"
             style="fill:#000000" />
        </g>
        <g
           id="g22"
           style="fill:#000000">
          <path
             d="M7.5004883,31.9365234c-0.081543,0-0.1645508-0.0097656-0.2475586-0.03125     C4.1601563,31.1171875,2,28.3339844,2,25.1367188s2.1601563-5.9814453,5.2529297-6.7695313     c0.5356445-0.140625,1.0791016,0.1865234,1.2163086,0.7216797c0.1362305,0.5351563-0.1870117,1.0800781-0.722168,1.2158203     C5.5410156,20.8671875,4,22.8544922,4,25.1367188s1.5410156,4.2685547,3.7470703,4.8310547     c0.5351563,0.1357422,0.8583984,0.6806641,0.722168,1.2158203C8.3535156,31.6357422,7.9467773,31.9365234,7.5004883,31.9365234z"
             id="path20"
             style="fill:#000000" />
        </g>
        <g
           id="g26"
           style="fill:#000000">
          <path
             d="M44.4995117,31.9462891c-0.4453125,0-0.8510742-0.2988281-0.9677734-0.75     c-0.1381836-0.5341797,0.1831055-1.0800781,0.7177734-1.2177734C46.4580078,29.4072266,48,27.4160156,48,25.1367188     c0-2.2822266-1.5410156-4.2695313-3.7470703-4.8320313c-0.5351563-0.1357422-0.8583984-0.6806641-0.722168-1.2158203     c0.1367188-0.5351563,0.6777344-0.859375,1.2163086-0.7216797C47.8398438,19.1552734,50,21.9394531,50,25.1367188     c0,3.1914063-2.1586914,5.9785156-5.2495117,6.7773438C44.6665039,31.9365234,44.5820313,31.9462891,44.4995117,31.9462891z"
             id="path24"
             style="fill:#000000" />
        </g>
        <g
           id="g30"
           style="fill:#000000">
          <path
             d="M32.0014648,12.8867188c-0.5522461,0-1-0.4472656-1-1c0-2.7578125-2.2436523-5.0019531-5.0014648-5.0019531     s-5.0014648,2.2441406-5.0014648,5.0019531c0,0.5527344-0.4477539,1-1,1s-1-0.4472656-1-1     c0-3.8613281,3.140625-7.0019531,7.0014648-7.0019531s7.0014648,3.140625,7.0014648,7.0019531     C33.0014648,12.4394531,32.5537109,12.8867188,32.0014648,12.8867188z"
             id="path28"
             style="fill:#000000" />
        </g>
      </g>
      <g
         id="g36"
         style="fill:#000000">
        <path
           d="M12.9995117,26.1152344c-0.2084961,0-0.4189453-0.0654297-0.5991211-0.2001953    c-0.4418945-0.3310547-0.53125-0.9580078-0.199707-1.3994141l6-8c0.3310547-0.4423828,0.9570313-0.53125,1.3999023-0.2001953    c0.4418945,0.3310547,0.53125,0.9580078,0.199707,1.3994141l-6,8    C13.6040039,25.9775391,13.3037109,26.1152344,12.9995117,26.1152344z"
           id="path34"
           style="fill:#000000" />
      </g>
      <g
         id="g40"
         style="fill:#000000">
        <path
           d="M19.0014648,26.1152344c-0.3041992,0-0.6044922-0.1376953-0.8007813-0.4003906l-6-8    c-0.331543-0.4414063-0.2421875-1.0683594,0.199707-1.3994141c0.4443359-0.3310547,1.0693359-0.2421875,1.3999023,0.2001953l6,8    c0.331543,0.4414063,0.2421875,1.0683594-0.199707,1.3994141C19.4204102,26.0498047,19.2099609,26.1152344,19.0014648,26.1152344z    "
           id="path38"
           style="fill:#000000" />
      </g>
      <g
         id="g44"
         style="fill:#000000">
        <path
           d="M30.9995117,26.1152344c-0.2084961,0-0.4189453-0.0654297-0.5991211-0.2001953    c-0.4418945-0.3310547-0.53125-0.9580078-0.199707-1.3994141l6-8c0.331543-0.4423828,0.9580078-0.53125,1.3999023-0.2001953    s0.53125,0.9580078,0.199707,1.3994141l-6,8C31.6040039,25.9775391,31.3037109,26.1152344,30.9995117,26.1152344z"
           id="path42"
           style="fill:#000000" />
      </g>
      <g
         id="g48"
         style="fill:#000000">
        <path
           d="M37.0014648,26.1152344c-0.3041992,0-0.6044922-0.1376953-0.8007813-0.4003906l-6-8    c-0.331543-0.4414063-0.2421875-1.0683594,0.199707-1.3994141c0.4438477-0.3310547,1.0698242-0.2421875,1.3999023,0.2001953l6,8    c0.331543,0.4414063,0.2421875,1.0683594-0.199707,1.3994141C37.4204102,26.0498047,37.2099609,26.1152344,37.0014648,26.1152344z    "
           id="path46"
           style="fill:#000000" />
      </g>
    </g>
  </g>
  <g
     id="SvgjsG1200"
     featurekey="text1"
     fill="#ffffff"
     transform="matrix(2.3064932823181152,0,0,2.3064932823181152,88.61610417701075,-2.6857137270746634)"
     style="fill:#000000">
    <path
       d="M3.48 8.04 l0 9.42 l1.36 0 c0.12 0 0.19666 -0.02334 0.23 -0.07 s0.05 -0.12332 0.05 -0.22998 l0 -8.84 c0 -0.18666 -0.08666 -0.28 -0.26 -0.28 l-1.38 0 z M8 17.759999999999998 c0 0.8 -0.16666 1.3733 -0.5 1.72 s-0.92 0.52 -1.76 0.52 l-5.14 0 l0 -14.5 l5.68 0 c0.57334 0 1.0033 0.16 1.29 0.48 s0.43 0.74666 0.43 1.28 l0 10.5 z M9.2 5.5 l5.64 0 l0.5 2.7 l-3.16 0 l0 3.44 l2.4 0 l0 2.5 l-2.4 0 l0 3.16 l3.04 0 l-0.5 2.7 l-5.52 0 l0 -14.5 z M21.38 5.5 l2.94 0 l-2.68 14.5 l-3.02 0 l-2.68 -14.5 l2.94 0 l0.26 1.86 l0.98 7.5 l1 -7.54 z M25.84 20 l-0.51996 -2.7 l3.12 0 c0.22666 0 0.34 -0.1 0.34 -0.3 l0 -2.64 c0 -0.2 -0.04 -0.32 -0.12 -0.36 s-0.22 -0.06 -0.42 -0.06 l-1.5 0 c-0.21334 0 -0.41668 -0.01666 -0.61002 -0.05 s-0.36668 -0.11 -0.52002 -0.23 s-0.27334 -0.28666 -0.36 -0.5 s-0.13 -0.5 -0.13 -0.86 l0 -4.92 c0 -0.57334 0.15666 -1.03 0.47 -1.37 s0.81 -0.51 1.49 -0.51 l4 0 l0.5 2.7 l-3.28 0 c-0.24 0 -0.36 0.10666 -0.36 0.32 l0 2.64 c0 0.14666 0.03666 0.24666 0.11 0.3 s0.18334 0.08 0.33 0.08 l1.82 0 c0.46666 0 0.82332 0.11 1.07 0.33 s0.37 0.60334 0.37 1.15 l0 4.78 c0 0.8 -0.16334 1.3667 -0.49 1.7 s-0.90332 0.5 -1.73 0.5 l-3.58 0 z  M38.120000000000005 18.2 l-0.26 1.8 l-2.92 0 l2.62 -14.5 l3.1 0 l2.62 14.5 l-2.92 0 l-0.26 -1.8 l-1.98 0 z M38.440000000000005 15.9 l1.34 0 l-0.66 -5.14 z M44.080000000000005 5.5 l2.98 0 l0 11.8 l2.92 0 l-0.5 2.7 l-5.4 0 l0 -14.5 z M50.88 5.5 l2.9 0 l0 14.5 l-2.9 0 l0 -14.5 z M60.02 5.5 l2.94 0 l-2.68 14.5 l-3.02 0 l-2.68 -14.5 l2.94 0 l0.26 1.86 l0.98 7.5 l1 -7.54 z M63.760000000000005 5.5 l5.64 0 l0.5 2.7 l-3.16 0 l0 3.44 l2.4 0 l0 2.5 l-2.4 0 l0 3.16 l3.04 0 l-0.5 2.7 l-5.52 0 l0 -14.5 z"
       id="path53"
       style="fill:#000000" />
  </g>
  <g
     id="SvgjsG1201"
     featurekey="text3"
     fill="#ffffff"
     transform="matrix(1.0872400999069214,0,0,1.0872400999069214,104.89442923735778,46.77724539341519)"
     style="fill:#000000">
    <path
       d="M5.8134 10.441 c4.6271 0 6.9153 3.4239 6.9153 6.6949 c0 3.4576 -2.3051 6.8642 -6.8644 6.8642 l-4.6271 0 c-0.15254 0 -0.22034 -0.08458 -0.22034 -0.22017 l0 -13.119 c0 -0.15254 0.067797 -0.22034 0.22034 -0.22034 l4.5763 0 z M5.932 22.7122 c3.5422 0 5.4576 -2.7798 5.4407 -5.5764 c0 -2.7797 -1.8644 -5.4066 -5.4407 -5.4066 l-3.5932 0 l0.016949 10.983 l3.5763 0 z M21.64411694915254 24.11864 c3.8305 0 6.9492 -3.0337 6.9492 -6.8981 c0 -3.8475 -3.1186 -6.8983 -6.9492 -6.8983 c-3.8475 0 -6.9661 3.0508 -6.9661 6.8983 c0 3.8644 3.1186 6.8981 6.9661 6.8981 z M21.64411694915254 22.8307 c-3.0847 0 -5.6441 -2.5085 -5.6441 -5.6102 s2.5593 -5.6102 5.6441 -5.6102 c3.0846 0 5.61 2.5085 5.61 5.6102 s-2.5254 5.6102 -5.61 5.6102 z  M45.186694915254236 10.441 c0.15254 0 0.22051 0.067797 0.22051 0.22034 l0 0.84746 c0 0.13559 -0.067797 0.22034 -0.22034 0.22034 l-4.3729 0 l0 12.034 c0 0.15254 -0.067797 0.23712 -0.20339 0.23712 l-0.67797 0 c-0.30508 0 -0.45763 -0.18644 -0.45763 -0.47441 l0 -11.797 l-4.3729 0 c-0.15254 0 -0.23729 -0.084746 -0.23729 -0.22034 l0 -0.83051 c0 -0.16949 0.084746 -0.23729 0.23729 -0.23729 l10.085 0 z M58.406491525423725 10.441 c0.15254 0 0.23729 0.067963 0.23729 0.22051 l0 13.119 c0 0.13559 -0.067797 0.22017 -0.20339 0.22017 l-0.6778 0 c-0.30508 0 -0.44068 -0.18644 -0.44068 -0.45763 l0 -5.5593 l-8.5593 0 l0 5.7797 c0 0.15254 -0.067797 0.23712 -0.22034 0.23712 l-0.86441 0 c-0.16966 0 -0.23746 -0.08458 -0.23746 -0.23712 l0 -13.102 c0 -0.15254 0.067797 -0.22034 0.22034 -0.22034 l0.88136 0 c0.13559 0 0.22034 0.067797 0.22034 0.22034 l0 6 l8.5593 0 l0 -6 c0 -0.15254 0.067797 -0.22034 0.20339 -0.22034 l0.88136 0 z M69.88115423728813 11.729 l-7.3556 0.00049656 l0 4.9659 l4.5424 0 c0.15254 0 0.23729 0.067797 0.23729 0.23729 l0 0.81339 c0 0.15254 -0.084746 0.22034 -0.23729 0.22034 l-4.5424 0 l0 4.7458 l7.3559 0 c0.15254 0 0.23712 0.084746 0.23712 0.23712 l0 0.81356 c0 0.16949 -0.067797 0.23712 -0.23729 0.23712 l-8.4746 0 c-0.15254 0 -0.22034 -0.08458 -0.22034 -0.22017 l0 -13.119 c0 -0.15254 0.084746 -0.22034 0.22034 -0.22034 l8.4746 0 c0.15254 0 0.23712 0.084746 0.23712 0.22034 l0 0.84746 c0 0.13559 -0.067797 0.22034 -0.23729 0.22034 z  M84.94896949152543 10.441 c0.15254 0 0.23729 0.085076 0.23729 0.22068 l0 0.84746 c0 0.13559 -0.084746 0.22034 -0.23729 0.22034 l-7.1695 0 l0 4.9659 l4.3559 0 c0.13559 0 0.22034 0.067797 0.22034 0.23729 l0 0.81339 c0 0.15254 -0.067797 0.22034 -0.22034 0.22034 l-4.3559 0 l0 5.8136 c0 0.13559 -0.067797 0.22017 -0.20339 0.22017 l-0.67797 0 c-0.28797 0 -0.44051 -0.18644 -0.44051 -0.45763 l0 -12.881 c0 -0.15254 0.067797 -0.22034 0.22017 -0.22034 l8.2712 0 z M88.1356152542373 10.441 l-0.86441 0 c-0.15254 0 -0.22034 0.067797 -0.22034 0.22034 l0 13.119 c0 0.13559 0.067797 0.22017 0.22034 0.22017 l0.88136 0 c0.11864 0 0.20339 -0.08458 0.20339 -0.22017 l0 -13.119 c0 -0.15254 -0.084746 -0.22034 -0.22034 -0.22034 z M103.15286440677966 10.441 c0.11864 0 0.23763 0.11881 0.15287 0.30525 l-6.2544 13.153 c-0.050847 0.10153 -0.13559 0.16933 -0.25424 0.16933 l-0.13559 0 c-0.10169 0 -0.18644 -0.067797 -0.23729 -0.16933 l-6.2542 -13.169 c-0.084746 -0.16966 0.033898 -0.28831 0.15254 -0.28831 l1.1356 0 c0.13559 0 0.18644 0.10169 0.25424 0.27119 l5.0168 10.864 l5.0339 -10.864 c0.067797 -0.16949 0.11864 -0.27119 0.25424 -0.27119 l1.1356 0 z M113.72861186440677 11.729 l-7.3556 0.00049656 l0 4.9659 l4.5424 0 c0.15254 0 0.23729 0.067797 0.23729 0.23729 l0 0.81339 c0 0.15254 -0.084746 0.22034 -0.23729 0.22034 l-4.5424 0 l0 4.7458 l7.3559 0 c0.15254 0 0.23712 0.084746 0.23712 0.23712 l0 0.81356 c0 0.16949 -0.067797 0.23712 -0.23729 0.23712 l-8.4746 0 c-0.15254 0 -0.22034 -0.08458 -0.22034 -0.22017 l0 -13.119 c0 -0.15254 0.084746 -0.22034 0.22034 -0.22034 l8.4746 0 c0.15254 0 0.23712 0.084746 0.23712 0.22034 l0 0.84746 c0 0.13559 -0.067797 0.22034 -0.23729 0.22034 z M117.35590169491523 10.441 c0.10169 0 0.18644 0.084746 0.18644 0.18627 l0 0.16966 l-0.16966 7.6441 c-0.016784 0.10169 -0.067631 0.18644 -0.16933 0.18644 l-0.69492 0 c-0.11864 0 -0.16949 -0.067797 -0.18644 -0.18644 l-0.16949 -7.6441 l0 -0.16966 c0 -0.10153 0.067797 -0.18627 0.18644 -0.18627 l1.0169 0 z M116.84750169491524 24.050847 c-0.49153 0 -0.89831 -0.38949 -0.89831 -0.88102 s0.40678 -0.89831 0.89831 -0.89831 s0.89831 0.40678 0.89831 0.89831 s-0.40678 0.88102 -0.89831 0.88102 z"
       id="path56"
       style="fill:#000000" />
  </g>
</svg>
